<?xml version="1.0" encoding="UTF-8"?><svg id="a" xmlns="http://www.w3.org/2000/svg" xmlns:xlink="http://www.w3.org/1999/xlink" viewBox="0 0 52.31 53"><defs><style>.d{fill:url(#c);}.e{fill:#1c0f46;}</style><linearGradient id="c" x1="570.65" y1="-963.63" x2="867.65" y2="-963.63" gradientTransform="translate(-100.51 -143.74) scale(.18 -.18)" gradientUnits="userSpaceOnUse"><stop offset="0" stop-color="#39ceee"/><stop offset=".5" stop-color="#2a71e2"/><stop offset="1" stop-color="#38055c"/></linearGradient></defs><g id="b"><path class="d" d="M51.42,30.53c-.14-.03-.29-.03-.43,0-.14,.03-.28,.09-.4,.16-.12,.08-.23,.19-.3,.31-.08,.12-.14,.25-.17,.4-.95,4.65-3.25,8.91-6.59,12.27-3.34,3.36-7.6,5.66-12.23,6.61-3.22,.66-6.54,.66-9.75,0-1.56-.31-3.08-.78-4.55-1.4-1.44-.61-2.82-1.36-4.11-2.24-3.89-2.64-6.94-6.35-8.77-10.69-.62-1.47-1.09-2.99-1.41-4.55-.66-3.23-.66-6.56,0-9.79,.95-4.65,3.24-8.92,6.59-12.28,3.35-3.36,7.6-5.65,12.23-6.61,3.22-.65,6.54-.65,9.75,0,6.19,1.29,11.64,4.95,15.18,10.21,.16,.24,.42,.41,.71,.47s.59,0,.83-.17c.25-.17,.41-.42,.47-.71,.05-.29,0-.59-.17-.84-2.86-4.26-6.9-7.6-11.61-9.61-1.6-.68-3.26-1.2-4.96-1.55-3.51-.71-7.13-.71-10.64,0-5.06,1.04-9.71,3.55-13.36,7.22C4.08,11.43,1.58,16.09,.54,21.17c-.71,3.52-.71,7.16,0,10.68,.7,3.39,2.04,6.61,3.97,9.48,2.87,4.26,6.91,7.59,11.63,9.59,1.6,.68,3.26,1.2,4.96,1.54,3.51,.72,7.13,.72,10.64,0,3.38-.69,6.59-2.05,9.45-3.99,2.81-1.91,5.23-4.34,7.13-7.16,1.93-2.87,3.28-6.09,3.97-9.48,.03-.14,.03-.29,0-.43-.03-.14-.08-.28-.16-.4-.08-.12-.18-.23-.3-.31s-.25-.14-.4-.17Zm-10.96-13.54c-1.22-1.8-2.77-3.36-4.57-4.58-1.83-1.25-3.89-2.11-6.05-2.56-2.25-.46-4.57-.46-6.82,0-2.68,.56-5.2,1.76-7.32,3.51-2.12,1.75-3.79,3.98-4.86,6.52-.43,1.03-.76,2.09-.98,3.19-.46,2.26-.46,4.59,0,6.84,.22,1.09,.55,2.16,.98,3.19,.43,1.01,.95,1.98,1.56,2.89,.61,.9,1.3,1.74,2.06,2.51,1.54,1.55,3.37,2.78,5.38,3.64,2.59,1.1,5.42,1.54,8.22,1.26,2.8-.27,5.49-1.25,7.83-2.83,.9-.61,1.73-1.3,2.5-2.07,.77-.77,1.46-1.61,2.06-2.51,.61-.91,1.14-1.88,1.56-2.89,.06-.14,.09-.28,.1-.43s-.02-.3-.07-.43c-.05-.14-.14-.27-.24-.37-.11-.11-.23-.19-.36-.25s-.28-.09-.43-.09-.3,.03-.43,.09c-.14,.06-.26,.14-.36,.25-.11,.11-.18,.23-.24,.37-.74,1.75-1.81,3.34-3.15,4.69-.67,.67-1.4,1.27-2.18,1.8-1.59,1.08-3.38,1.83-5.26,2.22-1.96,.4-3.97,.4-5.93,0-1.88-.39-3.67-1.14-5.26-2.22-1.56-1.06-2.91-2.42-3.97-3.99-1.07-1.59-1.83-3.39-2.21-5.27-.6-2.93-.3-5.97,.86-8.72,.74-1.75,1.81-3.34,3.15-4.69,.66-.67,1.39-1.27,2.17-1.8,1.59-1.08,3.38-1.84,5.26-2.22,1.96-.4,3.97-.4,5.93,0,1.88,.39,3.67,1.14,5.26,2.22,1.57,1.06,2.91,2.41,3.97,3.99,.16,.24,.42,.41,.71,.47,.29,.05,.59,0,.83-.17,.25-.16,.41-.42,.47-.71s0-.59-.17-.84Zm-24.67,4.99c.88-2.07,2.33-3.84,4.18-5.1,2.54-1.71,5.65-2.35,8.66-1.76,3,.59,5.66,2.34,7.37,4.89,.08,.12,.19,.22,.31,.3s.25,.14,.4,.16,.29,.03,.43,0c.14-.03,.28-.09,.39-.17,.12-.08,.23-.18,.3-.3,.08-.12,.14-.26,.16-.4,.03-.14,.03-.29,0-.43-.03-.14-.09-.28-.16-.4-1.49-2.22-3.59-3.96-6.05-5-.83-.35-1.7-.62-2.58-.8-1.83-.37-3.71-.37-5.54,0-1.76,.36-3.43,1.07-4.92,2.08-2.21,1.5-3.95,3.61-4.99,6.07-.35,.84-.62,1.7-.8,2.59-.55,2.68-.29,5.46,.74,8,1.03,2.53,2.79,4.7,5.04,6.23,1.49,1.01,3.16,1.72,4.92,2.08,1.83,.38,3.71,.38,5.54,0,1.76-.36,3.43-1.07,4.92-2.08,2.98-2.02,5.06-5.13,5.79-8.66,.03-.14,.03-.29,0-.43s-.08-.28-.16-.4c-.08-.12-.18-.23-.3-.31-.12-.08-.25-.14-.4-.17-.14-.03-.29-.03-.43,0-.14,.03-.28,.09-.4,.16-.12,.08-.23,.18-.31,.3s-.14,.26-.17,.4c-.46,2.22-1.55,4.25-3.15,5.86-.52,.52-1.09,1-1.71,1.41-.62,.42-1.27,.78-1.96,1.07-.7,.3-1.42,.52-2.16,.68-1.54,.31-3.12,.31-4.66,0-.74-.15-1.47-.38-2.16-.67-.69-.29-1.34-.65-1.96-1.07-.61-.42-1.18-.89-1.71-1.42-1.62-1.63-2.73-3.71-3.17-5.97s-.2-4.6,.69-6.73Zm29.6-6.98c.12-.08,.22-.18,.3-.3,.08-.12,.13-.26,.16-.4,.03-.14,.03-.29,0-.43-.03-.14-.09-.28-.17-.4-2.52-3.75-6.07-6.69-10.23-8.45-1.41-.59-2.87-1.05-4.36-1.36-3.09-.63-6.28-.63-9.37,0-2.97,.61-5.8,1.8-8.31,3.51-3.82,2.59-6.78,6.25-8.52,10.53-1.74,4.28-2.17,8.98-1.25,13.51,.61,2.98,1.8,5.82,3.5,8.34,2.34,3.48,5.58,6.27,9.37,8.05,3.79,1.79,7.98,2.52,12.15,2.11s8.15-1.93,11.52-4.42c3.37-2.49,6.02-5.84,7.65-9.71,.11-.27,.11-.57,0-.85-.05-.14-.14-.26-.24-.36s-.22-.19-.36-.24c-.27-.12-.58-.12-.85,0-.27,.11-.49,.32-.61,.6-2.14,5.06-6.15,9.09-11.19,11.23-1.27,.54-2.6,.95-3.95,1.23-2.8,.57-5.68,.57-8.48,0-2.69-.55-5.25-1.63-7.52-3.17-3.14-2.13-5.65-5.07-7.26-8.51-1.61-3.44-2.27-7.25-1.9-11.04,.36-3.79,1.74-7.4,3.98-10.46,2.24-3.06,5.27-5.46,8.75-6.95,1.28-.54,2.6-.95,3.95-1.23,2.8-.57,5.68-.57,8.48,0,1.36,.27,2.68,.69,3.95,1.23,3.76,1.6,6.97,4.25,9.25,7.65,.16,.24,.41,.41,.7,.46,.29,.06,.58,0,.82-.16Zm-2.61,1.76c.12-.08,.22-.19,.3-.31,.08-.12,.14-.26,.16-.4,.03-.14,.03-.29,0-.43-.03-.14-.09-.28-.17-.4-2.41-3.57-5.89-6.28-9.94-7.72-4.05-1.44-8.46-1.54-12.57-.27-4.11,1.26-7.71,3.81-10.27,7.28-2.55,3.47-3.93,7.67-3.93,11.98s1.38,8.51,3.93,11.98c2.56,3.47,6.16,6.02,10.27,7.28,4.11,1.26,8.52,1.16,12.57-.27,4.05-1.44,7.54-4.15,9.94-7.72,.16-.25,.22-.54,.17-.83s-.22-.55-.46-.71c-.25-.16-.54-.23-.83-.17-.29,.06-.54,.23-.71,.47-2.61,3.89-6.64,6.6-11.21,7.54-2.38,.48-4.83,.48-7.2,0-2.29-.47-4.46-1.39-6.39-2.7-1.9-1.29-3.54-2.94-4.83-4.85-1.31-1.94-2.22-4.12-2.69-6.41-.48-2.39-.48-4.84,0-7.23,.46-2.29,1.38-4.47,2.69-6.41,1.94-2.88,4.67-5.14,7.86-6.5,1.08-.46,2.2-.81,3.36-1.05,2.38-.48,4.83-.48,7.2,0,2.29,.47,4.46,1.39,6.39,2.7,1.9,1.29,3.54,2.93,4.83,4.84,.08,.12,.18,.23,.31,.31,.12,.08,.25,.14,.4,.16,.14,.03,.29,.03,.43,0,.14-.03,.28-.09,.4-.17Z"/><path class="e" d="M3.2,6.36c1.75,0,3.16-1.42,3.16-3.18S4.94,0,3.2,0,.03,1.43,.03,3.18s1.42,3.18,3.16,3.18Z"/></g></svg>